<svg width="46" height="46" viewBox="0 0 46 46" fill="none" xmlns="http://www.w3.org/2000/svg">
<path d="M23 0.000112968C16.9307 -0.0189704 11.1015 2.3804 6.79007 6.67229C2.47869 10.9642 0.0369256 16.7984 0 22.8961C0.000519059 25.9307 0.595936 28.9354 1.75227 31.7388C2.90861 34.5422 4.60323 37.0893 6.73934 39.2347C8.87546 41.3801 11.4112 43.0817 14.2019 44.2425C16.9926 45.4033 19.9835 46.0005 23.0039 46C29.1026 45.9989 34.9511 43.5645 39.2635 39.2319C43.5758 34.8993 45.999 29.0233 46 22.8961C45.9631 16.7984 43.5213 10.9642 39.2099 6.67229C34.8985 2.3804 29.0693 -0.0189704 23 0.000112968ZM23 40.9514C18.2336 40.9072 13.68 38.9626 10.3407 35.5452C7.00143 32.1279 5.15009 27.5178 5.19394 22.7291C5.23791 17.9404 7.17347 13.3653 10.5748 10.0104C13.9762 6.65547 18.5648 4.79545 23.3312 4.83951C28.0689 4.88339 32.5978 6.80512 35.9326 10.1866C39.2673 13.5681 41.1381 18.1359 41.1379 22.8961C41.1103 27.7051 39.1851 32.3068 35.7848 35.6917C32.3845 39.0765 27.7867 40.9681 23 40.9514Z" fill="white"/>
</svg>
